<?xml version="1.0" standalone="no"?>
<!DOCTYPE svg PUBLIC "-//W3C//DTD SVG 20010904//EN"
 "http://www.w3.org/TR/2001/REC-SVG-20010904/DTD/svg10.dtd">
<svg version="1.0" xmlns="http://www.w3.org/2000/svg"
 width="920.000000pt" height="920.000000pt" viewBox="0 0 920.000000 920.000000"
 preserveAspectRatio="xMidYMid meet">

<g transform="translate(0.000000,920.000000) scale(0.100000,-0.100000)"
fill="#000000" stroke="none">
<path d="M3910 8654 c101 -269 248 -791 291 -1031 23 -133 38 -387 22 -396 -6
-4 -71 50 -144 120 -114 107 -140 138 -178 207 -122 226 -169 310 -229 401
-135 208 -269 353 -376 405 l-46 22 -19 -23 -19 -24 41 -35 c215 -180 402
-411 518 -643 l49 -97 -62 46 c-215 158 -503 233 -893 234 -420 0 -855 -86
-1385 -276 -242 -86 -658 -259 -682 -282 -4 -4 45 -36 109 -72 537 -299 1012
-731 1279 -1163 58 -93 174 -317 174 -335 0 -5 -24 -13 -52 -17 -517 -64
-1052 -255 -1588 -565 -128 -74 -525 -333 -535 -349 -7 -12 52 -29 295 -87
842 -199 1337 -376 1559 -555 54 -44 89 -85 79 -94 -2 -1 -86 -53 -188 -115
-419 -255 -797 -520 -914 -639 l-49 -49 44 -6 c24 -3 170 -14 324 -25 382 -28
755 -63 750 -71 -3 -4 -37 -10 -77 -12 -40 -3 -85 -10 -100 -16 -26 -11 -27
-12 -13 -49 8 -21 64 -173 125 -338 61 -165 117 -319 126 -342 9 -24 22 -43
30 -43 8 0 14 -6 14 -12 0 -7 11 -23 23 -35 13 -11 35 -50 49 -85 14 -34 69
-171 122 -303 132 -326 186 -445 202 -445 8 0 14 -4 14 -9 0 -6 11 -22 25 -37
14 -15 25 -22 25 -15 0 6 3 10 8 9 17 -5 70 22 112 59 25 21 57 46 71 55 25
16 28 16 60 -6 28 -19 45 -23 94 -21 62 3 134 13 148 22 4 2 17 6 30 9 12 2
33 7 47 10 42 10 94 12 105 3 23 -18 65 -17 89 2 13 10 28 19 32 19 12 0 146
81 168 101 10 10 34 25 52 34 19 9 34 20 34 26 0 6 4 8 9 5 5 -4 7 4 4 16 -4
19 -3 20 6 8 10 -13 11 -13 11 0 1 12 3 12 14 -2 7 -10 17 -18 22 -18 5 0 17
-14 26 -30 20 -34 47 -38 93 -14 43 23 108 24 181 4 57 -17 147 -20 194 -8 8
3 31 8 50 12 42 10 167 94 227 154 24 23 46 42 51 43 4 0 15 2 25 4 11 2 19
-5 23 -21 4 -16 13 -24 28 -24 15 0 25 -9 33 -31 l12 -31 68 5 c37 3 79 8 93
11 14 3 35 8 48 10 12 3 27 8 32 11 11 7 22 9 94 20 27 3 54 11 60 16 62 52
61 52 133 28 26 -8 46 -8 81 1 87 23 147 43 160 53 6 5 12 6 12 1 0 -4 16 10
35 31 19 22 37 36 41 32 4 -4 1 -7 -7 -8 -8 0 6 -7 31 -15 25 -7 56 -12 70 -9
148 26 184 35 190 45 4 6 9 11 11 10 2 -1 24 3 49 10 25 7 79 14 120 16 41 2
86 6 100 9 14 4 41 9 60 11 24 3 45 17 67 40 20 22 36 33 44 28 8 -4 10 -3 5
4 -4 7 -2 12 3 12 6 0 11 -5 11 -11 0 -5 4 -8 9 -4 5 3 12 1 15 -4 4 -5 19 -7
34 -4 15 3 32 6 39 6 7 0 10 4 7 9 -3 4 -2 8 3 9 35 3 54 9 98 27 69 28 146
70 171 93 26 25 54 25 54 0 0 -26 38 -48 77 -45 18 1 56 11 85 22 52 19 126
37 140 34 4 -1 19 3 33 8 28 11 60 18 115 26 62 8 107 24 121 41 10 11 14 48
15 117 1 56 2 127 3 160 l1 59 73 -7 c39 -3 96 -13 125 -20 38 -10 51 -11 44
-3 -5 7 -70 89 -143 182 -74 94 -139 184 -145 200 -5 17 -17 30 -26 30 -9 0
-50 33 -91 72 -88 86 -98 70 106 161 421 189 783 315 1023 357 48 8 100 15
117 15 42 0 29 10 -78 63 -201 99 -738 300 -965 362 -36 10 -68 21 -72 24 -7
7 560 342 1142 676 47 27 158 86 248 132 l162 83 -36 15 c-306 127 -929 201
-1484 175 -129 -6 -297 -17 -373 -25 -77 -8 -143 -12 -148 -9 -5 3 -9 15 -9
27 0 19 16 28 108 64 443 171 896 277 1054 245 46 -9 47 -9 53 19 4 16 4 32 2
36 -7 12 -227 -2 -354 -22 -227 -36 -560 -132 -776 -226 -60 -26 -89 -34 -92
-26 -2 7 -16 55 -31 107 -88 311 -221 547 -419 746 -167 168 -341 272 -550
327 l-88 24 -23 134 c-12 74 -39 193 -58 264 -261 958 -816 1599 -1540 1780
-72 18 -150 36 -173 40 l-42 7 29 -78z m1035 -2918 c17 -3 74 -15 128 -27 435
-90 839 -364 1098 -741 202 -295 321 -687 314 -1036 -1 -65 -5 -131 -8 -147
-4 -17 -9 -50 -13 -75 -3 -25 -7 -46 -9 -48 -1 -2 -49 -21 -106 -42 -94 -36
-130 -59 -141 -92 -3 -8 -9 -8 -25 0 -17 10 -49 2 -183 -43 -89 -31 -170 -60
-180 -65 -11 -6 -20 -24 -22 -43 -3 -28 -6 -32 -28 -29 -14 1 -65 3 -115 4
-106 1 -181 -16 -345 -78 -72 -27 -166 -53 -248 -68 -73 -13 -140 -30 -149
-37 -12 -11 -14 -26 -9 -72 7 -68 2 -67 -55 10 l-41 55 -57 -6 c-31 -4 -94
-14 -141 -24 l-85 -17 3 -115 c3 -108 3 -114 -13 -95 -9 11 -14 13 -10 5 7
-15 0 -8 -56 67 -17 24 -46 52 -63 63 -49 30 -150 50 -255 50 -159 0 -276 -43
-392 -145 -46 -40 -66 -52 -72 -43 -4 7 -24 39 -43 71 l-36 57 -172 0 c-138 0
-176 -3 -193 -15 -36 -25 -57 -2 -127 135 -76 151 -139 337 -169 503 -31 172
-31 442 0 612 97 530 408 974 879 1251 172 101 337 162 570 209 11 3 45 7 75
11 30 3 56 8 58 10 7 7 402 -3 436 -10z m2075 -1844 c0 -14 -32 -37 -90 -65
-30 -14 -98 -46 -150 -71 -106 -51 -110 -52 -110 -31 0 9 32 29 78 50 42 20
115 56 162 79 87 45 110 53 110 38z m-468 -238 c-8 -14 -280 -134 -304 -134
-4 0 -8 6 -8 14 0 13 23 24 210 100 99 40 115 43 102 20z m-382 -158 c0 -10
-53 -32 -162 -68 -202 -66 -188 -62 -188 -45 0 15 56 37 250 98 103 33 100 32
100 15z m58 -32 c-3 -14 -7 -10 -16 16 -12 32 -11 34 4 19 9 -9 14 -25 12 -35z
m35 -39 c4 -8 2 -17 -3 -20 -6 -4 -10 3 -10 14 0 25 6 27 13 6z m-611 -102
c-6 -2 -10 -8 -8 -12 3 -4 -3 -7 -13 -8 -40 -3 -274 -65 -319 -84 -26 -12 -60
-25 -77 -30 -55 -18 -289 -59 -302 -54 -22 8 -14 25 11 25 52 0 265 49 338 79
85 34 210 68 297 80 67 10 91 12 73 4z m188 -8 c0 -8 -9 -19 -20 -25 -23 -12
-25 -7 -10 21 13 22 30 25 30 4z m-1050 -198 c0 -10 -32 -19 -102 -31 -141
-23 -143 -23 -143 -6 0 10 26 19 100 31 129 21 145 22 145 6z m505 -407 c114
-578 123 -624 115 -633 -8 -9 -208 -52 -213 -46 -2 2 -43 55 -91 117 -48 61
-90 112 -94 112 -5 0 -1 -59 6 -130 8 -72 13 -133 10 -135 -6 -7 -267 -65
-289 -65 -15 0 -19 7 -19 33 0 28 5 34 44 50 60 25 141 109 179 187 29 59 32
73 32 160 0 91 -2 100 -37 170 -56 113 -124 174 -238 210 -55 17 -60 23 -60
80 0 25 -5 82 -12 128 -6 45 -9 85 -6 87 3 3 40 12 82 19 56 10 80 10 90 2 8
-6 58 -69 111 -141 53 -71 110 -148 127 -170 l30 -40 -7 55 c-4 30 -17 117
-29 193 -16 97 -19 140 -12 146 12 10 138 30 175 27 23 -1 26 -11 106 -416z
m-2920 395 c50 -9 122 -22 161 -30 70 -16 70 -16 66 -46 -3 -18 -9 -28 -16
-25 -82 36 -176 72 -241 91 -95 28 -90 30 30 10z m-315 -15 c0 -4 -21 -11 -47
-15 -27 -4 -55 -11 -64 -16 -10 -5 -23 -3 -35 6 -16 11 -17 14 -4 19 35 12
150 17 150 6z m740 -21 c0 -5 -13 -9 -28 -9 -16 0 -52 -7 -81 -16 -40 -11 -56
-13 -65 -4 -16 16 9 28 74 35 30 4 62 7 70 9 19 3 30 -2 30 -15z m35 1 c3 -6
-1 -7 -9 -4 -18 7 -21 14 -7 14 6 0 13 -4 16 -10z m1311 -12 c3 -4 -5 -5 -16
-3 -11 2 -20 1 -20 -3 0 -4 -8 -8 -18 -9 -43 -3 -150 -37 -201 -63 -31 -15
-84 -53 -119 -84 -60 -53 -82 -66 -82 -48 0 5 24 33 53 63 62 63 167 122 247
138 30 6 64 13 75 15 30 6 76 3 81 -6z m3125 -26 c-14 -27 -169 -98 -183 -84
-8 8 15 24 82 57 104 50 115 53 101 27z m-4901 -44 c142 -48 239 -106 330
-198 178 -178 253 -356 254 -605 0 -149 -23 -257 -77 -360 -51 -96 -247 -280
-271 -254 -2 2 -27 67 -54 144 -28 77 -70 187 -92 245 -23 58 -69 182 -102
275 -33 94 -64 175 -69 181 -5 6 -22 9 -38 6 -35 -5 -36 -3 -86 138 -47 131
-62 174 -118 328 -40 109 -43 123 -28 132 9 5 68 8 131 6 101 -3 128 -7 220
-38z m4348 20 c-2 -13 -11 -24 -20 -26 -14 -3 -15 0 -5 22 15 32 30 34 25 4z
m-3756 -14 c191 -49 364 -214 398 -377 23 -111 -20 -263 -101 -359 -21 -26
-39 -50 -39 -54 0 -8 71 -84 242 -260 54 -55 98 -105 98 -111 0 -9 -186 -125
-222 -138 -12 -5 -34 20 -92 107 -42 62 -85 124 -97 138 l-20 25 5 -30 c14
-83 29 -244 23 -257 -8 -23 -235 -47 -248 -27 -16 26 -9 53 37 144 79 158 108
325 85 499 -28 211 -111 382 -259 537 -36 37 -56 69 -62 95 -14 59 -12 72 13
77 45 10 188 4 239 -9z m2005 -1 c2 -6 -2 -13 -9 -16 -9 -3 -14 3 -14 14 0 20
17 21 23 2z m-1702 -2 c7 -13 -22 -41 -43 -41 -12 0 -13 3 -5 11 6 6 9 18 6
25 -6 16 32 20 42 5z m62 -6 c4 -4 3 -5 -4 -1 -6 3 -14 2 -18 -4 -4 -6 -11 -8
-16 -4 -5 3 -7 9 -4 14 6 10 31 7 42 -5z m57 7 c3 -5 -1 -9 -9 -9 -8 0 -12 4
-9 9 3 4 7 8 9 8 2 0 6 -4 9 -8z m40 0 c3 -5 -1 -9 -9 -9 -8 0 -12 4 -9 9 3 4
7 8 9 8 2 0 6 -4 9 -8z m866 -29 c115 -31 150 -74 150 -180 0 -57 -1 -59 -37
-78 -21 -11 -54 -35 -75 -53 -36 -33 -37 -33 -68 -17 -58 30 -121 31 -183 2
-107 -49 -152 -122 -145 -234 2 -29 1 -53 -2 -53 -3 0 -21 33 -39 73 -19 39
-61 127 -93 194 -32 67 -58 130 -58 140 0 34 95 128 167 166 122 64 248 77
383 40z m-1643 -17 c-10 -26 -25 -18 -19 10 3 17 8 22 15 15 5 -5 7 -17 4 -25z
m951 -87 c34 -68 211 -434 257 -534 15 -33 58 -123 95 -200 74 -156 95 -204
89 -209 -18 -13 -223 -86 -232 -83 -7 3 -27 51 -46 108 -60 181 -81 230 -100
225 -9 -3 -33 -8 -53 -12 -43 -7 -43 -7 -29 -126 10 -94 -6 -97 -85 -16 -156
160 -166 182 -119 262 102 175 95 371 -20 537 -30 44 -55 87 -55 94 0 17 42
22 170 20 l95 -1 33 -65z m992 -88 c0 -23 -14 -41 -31 -41 -23 0 -24 5 -1 29
19 21 32 26 32 12z m140 -131 c161 -83 217 -295 118 -445 -40 -60 -108 -110
-178 -132 -97 -29 -212 3 -291 79 -84 82 -113 215 -72 333 23 63 111 153 173
177 65 25 190 19 250 -12z m-515 -167 c-3 -10 -9 -55 -12 -100 l-6 -82 -50
-11 c-28 -6 -54 -7 -58 -3 -9 10 -43 173 -37 179 6 5 126 32 152 33 13 1 16
-4 11 -16z m-142 -284 c32 -11 47 -11 96 2 l59 15 18 -30 c29 -49 104 -125
151 -153 l43 -25 -19 -26 c-63 -87 -167 -142 -270 -142 -68 0 -88 15 -42 31
36 13 38 25 12 76 -28 53 -131 273 -143 303 -9 24 -8 24 24 -6 18 -18 50 -38
71 -45z"/>
<path d="M2470 2426 c0 -8 17 -60 39 -113 21 -54 49 -128 61 -165 13 -38 25
-68 27 -68 3 0 22 10 43 21 91 51 113 186 44 268 -34 41 -73 58 -149 66 -56 6
-65 5 -65 -9z m124 -102 c11 -28 6 -39 -9 -20 -8 11 -15 23 -15 28 0 14 18 9
24 -8z m63 -108 c-4 -9 -13 -16 -21 -16 -13 0 -14 4 -4 25 12 28 35 19 25 -9z"/>
<path d="M3063 2525 c9 -102 18 -155 27 -155 15 0 62 44 71 67 15 39 -8 119
-41 143 -15 11 -36 20 -46 20 -15 0 -16 -8 -11 -75z"/>
<path d="M3515 2575 c21 -201 18 -190 44 -193 13 -2 27 0 32 5 8 8 -62 237
-77 252 -3 3 -3 -25 1 -64z"/>
<path d="M4549 2495 c-2 -77 -10 -89 -66 -100 -48 -9 -82 -25 -55 -25 7 0 33
-10 57 -21 l46 -22 -7 -61 -6 -61 42 43 c23 23 46 42 51 42 5 0 27 -9 49 -20
49 -25 69 -26 48 -2 -15 16 -48 76 -48 85 0 3 18 24 40 48 21 24 38 44 37 46
-1 1 -20 -2 -42 -7 -69 -16 -78 -13 -112 43 l-32 52 -2 -40z"/>
</g>
</svg>
